<svg width="45" height="45" viewBox="0 0 45 45" fill="none" xmlns="http://www.w3.org/2000/svg">
<path d="M10.3341 42.5025C5.95758 42.5025 2.40112 38.946 2.40112 34.5695V23.9002C2.40112 23.0178 3.12311 22.2958 4.00554 22.2958C4.88797 22.2958 5.60995 23.0178 5.60995 23.9002V34.5785C5.60995 37.1901 7.73134 39.3115 10.343 39.3115H35.6838C38.2954 39.3115 40.4168 37.1901 40.4168 34.5785V24.0695C40.4168 23.1871 41.1388 22.4651 42.0212 22.4651C42.9037 22.4651 43.6257 23.1871 43.6257 24.0695V34.5695C43.6257 38.946 40.0692 42.5025 35.6927 42.5025H10.3341Z" fill="#F2F2F2"/>
<path d="M23.0001 33.7139C22.5722 33.7139 22.1444 33.5356 21.8413 33.2236L14.1847 25.5759C13.8727 25.264 13.7034 24.845 13.7034 24.4083C13.7034 23.9715 13.8727 23.5526 14.1847 23.2406C14.4967 22.9287 14.9156 22.7593 15.3524 22.7593C15.7891 22.7593 16.208 22.9287 16.52 23.2406L21.36 28.0806V4.74529C21.36 3.83613 22.0998 3.09631 23.009 3.09631C23.9181 3.09631 24.658 3.83613 24.658 4.74529V28.0806L29.489 23.2495C29.801 22.9376 30.2199 22.7682 30.6567 22.7682C31.0935 22.7682 31.5124 22.9376 31.8244 23.2495C32.4661 23.8913 32.4661 24.9431 31.8244 25.5849L24.1766 33.2326C23.8647 33.5267 23.4368 33.7139 23.0001 33.7139Z" fill="#F2F2F2"/>
</svg>
