<svg width="44" height="44" viewBox="0 0 44 44" fill="none" xmlns="http://www.w3.org/2000/svg">
<path d="M42.495 26.5962C41.8616 26.5962 41.3483 27.1123 41.3483 27.749V37.9857C41.346 39.8947 39.8074 41.442 37.9082 41.4443H5.73342C3.83423 41.442 2.29561 39.8947 2.29337 37.9857V7.94316C2.29561 6.03373 3.83423 4.48682 5.73342 4.48456H15.9147C16.5481 4.48456 17.0614 3.96848 17.0614 3.3317C17.0614 2.69492 16.5481 2.17883 15.9147 2.17883H5.73342C2.56839 2.18244 0.00358339 4.76107 0 7.94316V37.9857C0.00358339 41.1678 2.56839 43.7464 5.73342 43.75H37.9082C41.0732 43.7464 43.6381 41.1678 43.6416 37.9857V27.7495C43.6416 27.1127 43.1283 26.5962 42.495 26.5962Z" fill="#F2F2F2"/>
<path d="M17.9304 20.5297L34.6734 3.69601L40.0731 9.12484L23.3301 25.9585L17.9304 20.5297Z" fill="#F2F2F2"/>
<path d="M15.1985 28.7051L21.1657 27.0433L16.8513 22.7057L15.1985 28.7051Z" fill="#F2F2F2"/>
<path d="M41.5659 0.842695C40.4457 -0.280898 38.632 -0.280898 37.5118 0.842695L36.2957 2.06536L41.6954 7.49419L42.9115 6.27152C44.0295 5.14523 44.0295 3.32181 42.9115 2.19551L41.5659 0.842695Z" fill="#F2F2F2"/>
</svg>
