<svg width="45" height="45" viewBox="0 0 45 45" fill="none" xmlns="http://www.w3.org/2000/svg">
<path d="M22.5 0C10.0938 0 0 10.0932 0 22.5C0 34.9068 10.0938 45 22.5 45C34.9062 45 45 34.9068 45 22.5C45 10.0932 34.9062 0 22.5 0ZM22.5 42.2308C11.6204 42.2308 2.76923 33.3796 2.76923 22.5C2.76923 11.6204 11.6204 2.76923 22.5 2.76923C33.3796 2.76923 42.2308 11.6204 42.2308 22.5C42.2308 33.3796 33.3796 42.2308 22.5 42.2308Z" fill="#F2F2F2"/>
<path d="M22.8586 15.8442C24.1376 15.8442 25.1744 14.8074 25.1744 13.5284C25.1744 12.2495 24.1376 11.2126 22.8586 11.2126C21.5797 11.2126 20.5428 12.2495 20.5428 13.5284C20.5428 14.8074 21.5797 15.8442 22.8586 15.8442Z" fill="#F2F2F2"/>
<path d="M22.2488 19.6214C21.4844 19.6214 20.8641 20.2417 20.8641 21.006V32.7752C20.8641 33.5396 21.4844 34.1599 22.2488 34.1599C23.0131 34.1599 23.6334 33.5396 23.6334 32.7752V21.006C23.6334 20.241 23.0131 19.6214 22.2488 19.6214Z" fill="#F2F2F2"/>
</svg>
