<svg width="42" height="42" viewBox="0 0 42 42" fill="none" xmlns="http://www.w3.org/2000/svg">
<path d="M8.33406 40.5026C3.95758 40.5026 0.401123 36.9461 0.401123 32.5697V21.9003C0.401123 21.0179 1.12311 20.2959 2.00554 20.2959C2.88797 20.2959 3.60995 21.0179 3.60995 21.9003V32.5786C3.60995 35.1902 5.73134 37.3116 8.34297 37.3116H33.6838C36.2954 37.3116 38.4168 35.1902 38.4168 32.5786V22.0697C38.4168 21.1872 39.1388 20.4653 40.0212 20.4653C40.9037 20.4653 41.6257 21.1872 41.6257 22.0697V32.5697C41.6257 36.9461 38.0692 40.5026 33.6927 40.5026H8.33406Z" fill="#223C61"/>
<path d="M21.0001 31.7139C20.5722 31.7139 20.1444 31.5357 19.8413 31.2237L12.1847 23.576C11.8727 23.264 11.7034 22.8451 11.7034 22.4083C11.7034 21.9716 11.8727 21.5527 12.1847 21.2407C12.4967 20.9287 12.9156 20.7594 13.3524 20.7594C13.7891 20.7594 14.208 20.9287 14.52 21.2407L19.36 26.0807V2.74536C19.36 1.83619 20.0998 1.09637 21.009 1.09637C21.9181 1.09637 22.658 1.83619 22.658 2.74536V26.0807L27.489 21.2496C27.801 20.9376 28.2199 20.7683 28.6567 20.7683C29.0935 20.7683 29.5124 20.9376 29.8244 21.2496C30.4661 21.8914 30.4661 22.9431 29.8244 23.5849L22.1766 31.2326C21.8647 31.5268 21.4368 31.7139 21.0001 31.7139Z" fill="#223C61"/>
</svg>
