<svg width="38" height="42" viewBox="0 0 38 42" fill="none" xmlns="http://www.w3.org/2000/svg">
<path d="M31.2501 29.3332C29.6668 29.3332 28.2501 29.9582 27.1668 30.9374L12.3126 22.2915C12.4168 21.8124 12.5001 21.3332 12.5001 20.8332C12.5001 20.3332 12.4168 19.854 12.3126 19.3749L27.0001 10.8124C28.1251 11.854 29.6043 12.4999 31.2501 12.4999C34.7085 12.4999 37.5001 9.70821 37.5001 6.24988C37.5001 2.79154 34.7085 -0.00012207 31.2501 -0.00012207C27.7918 -0.00012207 25.0001 2.79154 25.0001 6.24988C25.0001 6.74988 25.0835 7.22904 25.1876 7.70821L10.5001 16.2707C9.37512 15.229 7.89596 14.5832 6.25012 14.5832C2.79179 14.5832 0.00012207 17.3749 0.00012207 20.8332C0.00012207 24.2915 2.79179 27.0832 6.25012 27.0832C7.89596 27.0832 9.37512 26.4374 10.5001 25.3957L25.3335 34.0624C25.2293 34.4999 25.1668 34.9582 25.1668 35.4165C25.1668 38.7707 27.896 41.4999 31.2501 41.4999C34.6043 41.4999 37.3335 38.7707 37.3335 35.4165C37.3335 32.0624 34.6043 29.3332 31.2501 29.3332Z" fill="#223C61"/>
</svg>
