<svg width="45" height="45" viewBox="0 0 45 45" fill="none" xmlns="http://www.w3.org/2000/svg">
<path d="M35.2501 31.3332C33.6668 31.3332 32.2501 31.9582 31.1668 32.9374L16.3126 24.2915C16.4168 23.8124 16.5001 23.3332 16.5001 22.8332C16.5001 22.3332 16.4168 21.854 16.3126 21.3749L31.0001 12.8124C32.1251 13.854 33.6043 14.4999 35.2501 14.4999C38.7085 14.4999 41.5001 11.7082 41.5001 8.24988C41.5001 4.79154 38.7085 1.99988 35.2501 1.99988C31.7918 1.99988 29.0001 4.79154 29.0001 8.24988C29.0001 8.74988 29.0835 9.22904 29.1876 9.70821L14.5001 18.2707C13.3751 17.229 11.896 16.5832 10.2501 16.5832C6.79179 16.5832 4.00012 19.3749 4.00012 22.8332C4.00012 26.2915 6.79179 29.0832 10.2501 29.0832C11.896 29.0832 13.3751 28.4374 14.5001 27.3957L29.3335 36.0624C29.2293 36.4999 29.1668 36.9582 29.1668 37.4165C29.1668 40.7707 31.896 43.4999 35.2501 43.4999C38.6043 43.4999 41.3335 40.7707 41.3335 37.4165C41.3335 34.0624 38.6043 31.3332 35.2501 31.3332Z" fill="#F2F2F2"/>
</svg>
