<?xml version="1.0" encoding="UTF-8"?>
<svg version="1.1" xmlns="http://www.w3.org/2000/svg" width="30" height="31">
<path d="M0 0 C1.32 0 2.64 0 4 0 C4 1.32 4 2.64 4 4 C3.34 4 2.68 4 2 4 C1.7525 4.5775 1.505 5.155 1.25 5.75 C-0.16727257 8.30109062 -1.91182287 9.97973107 -4 12 C-3.10692139 12.03758423 -3.10692139 12.03758423 -2.19580078 12.07592773 C0.49469136 12.19177494 3.1848234 12.31455196 5.875 12.4375 C6.81214844 12.47681641 7.74929687 12.51613281 8.71484375 12.55664062 C10.05869141 12.61948242 10.05869141 12.61948242 11.4296875 12.68359375 C12.67081299 12.73858032 12.67081299 12.73858032 13.93701172 12.79467773 C16 13 16 13 18 14 C17.67 15.32 17.34 16.64 17 18 C6.605 18.495 6.605 18.495 -4 19 C-2.68 20.423125 -1.36 21.84625 0 23.3125 C4 27.625 4 27.625 4 31 C-1.11951959 30.66306635 -3.57244849 27.88370263 -6.8125 24.25 C-7.31458984 23.7240625 -7.81667969 23.198125 -8.33398438 22.65625 C-10.46860624 20.30961808 -11.8930919 18.49693832 -12.56640625 15.3671875 C-11.81794918 12.23915312 -10.4924198 11.02337028 -8.125 8.875 C-5.66725193 6.61105285 -3.86900058 4.80350087 -2 2 C-1.34 2 -0.68 2 0 2 C0 1.34 0 0.68 0 0 Z " fill="#3F3F46" transform="translate(12,0)"/>
</svg>
